<svg width="101" height="27" fill="none" xmlns="http://www.w3.org/2000/svg"><path d="M15.997 12.89a5.147 5.147 0 012.45-4.318 5.268 5.268 0 00-4.15-2.244c-1.746-.183-3.44 1.045-4.329 1.045-.907 0-2.277-1.027-3.752-.997a5.527 5.527 0 00-4.652 2.837c-2.011 3.482-.51 8.6 1.416 11.414.964 1.378 2.09 2.918 3.564 2.863 1.442-.06 1.981-.92 3.722-.92 1.725 0 2.23.92 3.735.886 1.547-.026 2.522-1.385 3.452-2.776a11.4 11.4 0 001.58-3.216 4.973 4.973 0 01-3.036-4.575zm-2.841-8.413a5.067 5.067 0 001.16-3.63 5.156 5.156 0 00-3.337 1.726A4.823 4.823 0 009.79 6.068a4.262 4.262 0 003.366-1.591zM33.302 20.14h-4.734l-1.136 3.356h-2.005l4.483-12.418h2.083l4.484 12.418h-2.04l-1.135-3.356zm-4.243-1.55h3.752l-1.85-5.446h-.052l-1.85 5.447zm17.101.38c0 2.813-1.507 4.62-3.78 4.62a3.07 3.07 0 01-2.848-1.583h-.043v4.484h-1.858V14.442h1.799v1.506h.034a3.212 3.212 0 012.883-1.6c2.298 0 3.812 1.816 3.812 4.622zm-1.911 0c0-1.833-.947-3.038-2.393-3.038-1.42 0-2.375 1.23-2.375 3.038 0 1.824.956 3.046 2.375 3.046 1.446 0 2.393-1.197 2.393-3.046zm11.875 0c0 2.813-1.506 4.62-3.778 4.62a3.07 3.07 0 01-2.849-1.583h-.043v4.484h-1.858V14.442h1.799v1.506h.034a3.213 3.213 0 012.883-1.6c2.297 0 3.813 1.816 3.813 4.622zm-1.91 0c0-1.833-.947-3.038-2.393-3.038-1.42 0-2.375 1.23-2.375 3.038 0 1.824.955 3.046 2.375 3.046 1.446 0 2.393-1.197 2.393-3.046zm8.496 1.066c.137 1.232 1.333 2.04 2.968 2.04 1.567 0 2.694-.809 2.694-1.919 0-.964-.68-1.54-2.29-1.936l-1.609-.388c-2.28-.55-3.339-1.617-3.339-3.348 0-2.142 1.867-3.614 4.518-3.614 2.625 0 4.424 1.472 4.484 3.614H68.26c-.112-1.239-1.136-1.987-2.634-1.987-1.497 0-2.521.757-2.521 1.858 0 .878.654 1.395 2.255 1.79l1.368.336c2.548.603 3.606 1.626 3.606 3.443 0 2.323-1.85 3.778-4.794 3.778-2.753 0-4.613-1.42-4.733-3.667h1.902zM74.346 12.3v2.142h1.722v1.472h-1.722v4.991c0 .776.345 1.137 1.102 1.137.204-.004.408-.018.611-.043v1.463c-.34.064-.686.092-1.032.086-1.833 0-2.548-.689-2.548-2.444v-5.19h-1.316v-1.472h1.316V12.3h1.867zm2.718 6.67c0-2.849 1.678-4.639 4.294-4.639 2.625 0 4.295 1.79 4.295 4.639 0 2.856-1.661 4.638-4.295 4.638-2.633 0-4.294-1.782-4.294-4.638zm6.695 0c0-1.954-.895-3.108-2.401-3.108-1.506 0-2.401 1.162-2.401 3.108 0 1.962.895 3.106 2.4 3.106 1.507 0 2.402-1.144 2.402-3.106zm3.426-4.528h1.772v1.541h.044a2.16 2.16 0 012.177-1.635c.214-.001.428.022.637.069v1.738a2.594 2.594 0 00-.835-.112 1.872 1.872 0 00-1.937 2.083v5.37h-1.858v-9.054zm13.198 6.395c-.25 1.643-1.85 2.771-3.898 2.771-2.634 0-4.269-1.764-4.269-4.595 0-2.84 1.644-4.682 4.19-4.682 2.506 0 4.081 1.72 4.081 4.466v.637h-6.395v.112a2.358 2.358 0 002.436 2.564 2.048 2.048 0 002.09-1.273h1.765zm-6.282-2.702h4.526a2.177 2.177 0 00-2.22-2.298 2.29 2.29 0 00-2.306 2.298zM28.826 1.731a2.64 2.64 0 012.808 2.965c0 1.906-1.03 3.002-2.808 3.002h-2.155V1.73h2.155zm-1.228 5.123h1.125a1.876 1.876 0 001.967-2.146 1.881 1.881 0 00-1.967-2.134h-1.125v4.28zm5.082-1.41a2.132 2.132 0 114.248 0 2.134 2.134 0 11-4.247 0zm3.334 0c0-.976-.439-1.547-1.208-1.547-.773 0-1.207.571-1.207 1.547 0 .984.434 1.55 1.207 1.55.77 0 1.208-.57 1.208-1.55zm6.559 2.254h-.922l-.93-3.317h-.07l-.927 3.317h-.913l-1.242-4.503h.902l.806 3.436h.067l.925-3.436h.853l.926 3.436h.07l.803-3.436h.889l-1.237 4.503zm2.28-4.503h.856v.715h.066a1.348 1.348 0 011.344-.802 1.465 1.465 0 011.559 1.675v2.915h-.889V5.006c0-.724-.314-1.084-.972-1.084a1.033 1.033 0 00-1.075 1.141v2.635h-.889V3.195zm5.241-1.758h.888v6.26h-.888v-6.26zm2.124 4.007a2.134 2.134 0 114.247 0 2.133 2.133 0 11-4.247 0zm3.333 0c0-.976-.439-1.547-1.208-1.547-.773 0-1.207.571-1.207 1.547 0 .984.434 1.55 1.207 1.55.77 0 1.208-.57 1.208-1.55zm1.849.98c0-.81.604-1.278 1.676-1.344l1.22-.07v-.39c0-.475-.315-.744-.922-.744-.497 0-.84.182-.939.5h-.86c.09-.773.818-1.27 1.84-1.27 1.129 0 1.765.563 1.765 1.514v3.077h-.855v-.633h-.07a1.515 1.515 0 01-1.353.707A1.36 1.36 0 0157.4 6.424zm2.895-.384v-.377l-1.1.07c-.62.042-.9.253-.9.65 0 .405.351.64.834.64a1.062 1.062 0 001.166-.983zm2.053-.596c0-1.423.732-2.324 1.87-2.324a1.484 1.484 0 011.38.79h.067V1.437h.888v6.26h-.851v-.71h-.07a1.564 1.564 0 01-1.415.785c-1.145 0-1.869-.901-1.869-2.328zm.918 0c0 .955.45 1.53 1.203 1.53.75 0 1.212-.583 1.212-1.526 0-.938-.468-1.53-1.212-1.53-.748 0-1.203.58-1.203 1.526zm6.964 0a2.134 2.134 0 114.247 0 2.134 2.134 0 11-4.247 0zm3.333 0c0-.976-.439-1.547-1.208-1.547-.772 0-1.207.571-1.207 1.547 0 .984.435 1.55 1.207 1.55.77 0 1.208-.57 1.208-1.55zm2.107-2.249h.855v.715h.066a1.349 1.349 0 011.344-.802 1.465 1.465 0 011.559 1.675v2.915h-.889V5.006c0-.724-.315-1.084-.972-1.084a1.033 1.033 0 00-1.075 1.141v2.635h-.889V3.195zm8.845-1.121v1.141h.976v.749h-.976v2.315c0 .472.195.679.637.679.113 0 .226-.008.339-.021v.74c-.16.029-.322.044-.484.046-.988 0-1.382-.348-1.382-1.216V3.964h-.714v-.749h.715V2.074h.89zm2.19-.637h.88v2.481h.07a1.385 1.385 0 011.374-.806 1.483 1.483 0 011.55 1.679v2.907h-.889V5.01c0-.72-.335-1.084-.963-1.084a1.052 1.052 0 00-1.134 1.142v2.63h-.888V1.437zm9.056 5.045a1.828 1.828 0 01-1.951 1.303 2.045 2.045 0 01-2.08-2.325 2.077 2.077 0 012.076-2.352c1.253 0 2.009.856 2.009 2.27v.31h-3.18v.05a1.19 1.19 0 001.2 1.29 1.08 1.08 0 001.07-.546h.856zM92.635 5.03h2.275a1.087 1.087 0 00-1.11-1.166 1.151 1.151 0 00-1.166 1.167z" fill="#000"/></svg>